<?xml version="1.0" encoding="utf-8"?>
<!-- Generator: Adobe Illustrator 27.1.1, SVG Export Plug-In . SVG Version: 6.00 Build 0)  -->
<svg version="1.1" id="Camada_1" xmlns="http://www.w3.org/2000/svg" xmlns:xlink="http://www.w3.org/1999/xlink" x="0px" y="0px"
	 viewBox="0 0 278.3 176.7" style="enable-background:new 0 0 278.3 176.7;" xml:space="preserve">
<style type="text/css">
	.st0{fill:none;stroke:#000000;stroke-width:0.148;stroke-miterlimit:10;}
	.st1{fill:#A5B87A;}
</style>
<g>
	<path class="st1" d="M217.6,86.7c-0.3-0.3-5.3-6.4-14.3-12.5c6-9.1,8.2-16.6,8.3-17l0.3-1l-0.9-0.5c-0.4-0.2-7.1-3.7-17.5-5.9
		c2-10.4,1.2-18,1.2-18.4l-0.1-1l-1-0.1c-0.4,0-8-0.8-18.4,1.2c-2.1-10.4-5.7-17.1-5.9-17.5l-0.5-0.9l-1,0.3
		c-0.4,0.1-7.9,2.4-17,8.3c-6.1-9-12.1-14-12.5-14.3l-0.8-0.6l-0.8,0.6c-0.3,0.3-6.4,5.3-12.5,14.3c-9.1-6-16.6-8.2-17-8.3l-1-0.3
		l-0.5,0.9c-0.2,0.4-3.7,7.1-5.9,17.5c-10.4-2-18-1.2-18.4-1.2l-1,0.1l-0.1,1c0,0.2-0.2,1.7-0.2,4.3c0,3.3,0.3,8.3,1.4,14.1
		c-10.4,2.1-17.1,5.7-17.5,5.9l-0.9,0.5l0.3,1c0.1,0.4,2.4,7.9,8.3,17c-9,6.1-14,12.1-14.3,12.5L57,87.5l0.6,0.8
		c0.3,0.3,5.3,6.4,14.3,12.5c-6,9.1-8.2,16.6-8.3,17l-0.3,1l0.9,0.5c0.4,0.2,7.1,3.7,17.5,5.9c-1.1,5.9-1.4,10.8-1.4,14.1
		c0,2.6,0.2,4.1,0.2,4.3l0.1,1l1,0.1c0.4,0,8,0.8,18.4-1.2c2.1,10.4,5.7,17.1,5.9,17.5l0.5,0.9l1-0.3c0.4-0.1,7.9-2.4,17-8.3
		c6.1,9,12.1,14,12.5,14.3l0.8,0.6l0.8-0.6c0.3-0.3,6.4-5.3,12.5-14.3c9.1,6,16.6,8.2,17,8.3l1,0.3l0.5-0.9
		c0.2-0.4,3.7-7.1,5.9-17.5c10.4,2,18,1.2,18.4,1.2l1-0.1l0.1-1c0-0.4,0.8-8-1.2-18.4c10.4-2.1,17.1-5.7,17.5-5.9l0.9-0.5l-0.3-1
		c-0.1-0.4-2.4-7.9-8.3-17c9-6.1,14-12.1,14.3-12.5l0.6-0.8L217.6,86.7z M208.9,57.5c-0.8,2.3-3.2,8.3-7.8,15.3
		c-1.7-1.1-3.5-2.1-5.5-3.2c-2.2-1.1-4.6-2.2-7.2-3.2c1.1-2.6,2.1-5,2.8-7.4c0.7-2.3,1.3-4.5,1.8-6.6
		C200.9,54.1,206.7,56.5,208.9,57.5z M190.4,85.7c-0.6,0.6-1.3,1.2-1.9,1.8c0.7,0.6,1.3,1.2,1.9,1.8c3.7,3.5,6.8,7.2,9.3,10.8
		c-3.6,2.2-7.7,4.4-12.3,6.2c-1.6-3.3-3.6-6.8-6.1-10.2c-0.5-0.7-1-1.4-1.5-2c-1.7-2.2-3.7-4.4-5.9-6.5c2.2-2.1,4.1-4.3,5.9-6.5
		c0.5-0.7,1.1-1.4,1.5-2c2.5-3.4,4.5-6.8,6.1-10.1c4.6,1.8,8.8,3.9,12.3,6.2C197.2,78.5,194.1,82.2,190.4,85.7z M174.1,126.5
		c0.1,5-0.3,9.7-1,13.8c-4.2-1-8.9-2.4-13.6-4.5c1.2-3.4,2.2-7.1,2.8-11.1c0.1-0.8,0.3-1.7,0.4-2.5c0.4-2.9,0.5-5.9,0.5-9.1
		c3.2,0.1,6.2-0.1,9.1-0.5c0.9-0.1,1.7-0.2,2.5-0.4c4-0.7,7.7-1.6,11.1-2.8c2.1,4.7,3.5,9.3,4.5,13.6c-4.2,0.7-8.8,1.1-13.8,1
		c-0.9,0-1.7-0.1-2.6-0.1C174.1,124.8,174.1,125.7,174.1,126.5z M137.6,138.4c-0.6,0.7-1.2,1.3-1.8,1.9c-3.5,3.7-7.2,6.8-10.8,9.3
		c-2.2-3.6-4.4-7.7-6.2-12.3c3.3-1.6,6.8-3.6,10.1-6.1c0.7-0.5,1.4-1,2-1.5c2.2-1.7,4.4-3.7,6.5-5.9c2.1,2.2,4.3,4.1,6.5,5.9
		c0.7,0.5,1.4,1.1,2,1.5c3.4,2.5,6.8,4.5,10.1,6.1c-1.8,4.6-4,8.8-6.2,12.3c-3.5-2.5-7.2-5.6-10.8-9.3
		C138.8,139.7,138.2,139,137.6,138.4z M101.1,126.5c0-0.9,0.1-1.7,0.1-2.6c-0.9,0.1-1.7,0.1-2.6,0.1c-5,0.1-9.7-0.3-13.8-1
		c1-4.2,2.4-8.9,4.5-13.6c3.4,1.2,7.1,2.2,11.1,2.8c0.8,0.1,1.7,0.3,2.5,0.4c2.9,0.4,6,0.5,9.1,0.5c0,0.4,0,0.7,0,1.1
		c0,2.8,0.2,5.5,0.5,8.1c0.1,0.9,0.2,1.7,0.4,2.5c0.7,4,1.6,7.7,2.8,11.1c-4.7,2.1-9.3,3.5-13.6,4.5
		C101.4,136.2,101,131.5,101.1,126.5z M84.8,89.3c0.6-0.6,1.3-1.2,1.9-1.8c-0.7-0.6-1.3-1.2-1.9-1.8c-3.7-3.5-6.8-7.2-9.3-10.8
		c3.6-2.2,7.7-4.4,12.3-6.2c1.6,3.3,3.6,6.8,6.1,10.1c0.5,0.7,1,1.4,1.5,2c1.7,2.2,3.7,4.4,5.9,6.5c-2.2,2.1-4.1,4.3-5.9,6.5
		c-0.5,0.7-1.1,1.4-1.5,2c-2.5,3.4-4.5,6.8-6.1,10.1c-4.6-1.8-8.8-3.9-12.3-6.2C78,96.5,81.1,92.8,84.8,89.3z M101.1,48.5
		c-0.1-5,0.3-9.7,1-13.8c4.2,1,8.9,2.4,13.6,4.5c-1.2,3.4-2.2,7.1-2.8,11.2c-0.1,0.8-0.2,1.7-0.4,2.5c-0.4,2.9-0.5,6-0.5,9.1
		c-3.2-0.1-6.2,0.1-9.1,0.5c-0.9,0.1-1.7,0.2-2.5,0.4c-4,0.7-7.7,1.6-11.1,2.8c-2.1-4.7-3.5-9.3-4.5-13.6c4.2-0.7,8.8-1.1,13.8-1
		c0.9,0,1.7,0.1,2.6,0.1C101.1,50.2,101.1,49.3,101.1,48.5z M137.6,36.6c0.6-0.7,1.2-1.3,1.8-1.9c3.5-3.7,7.2-6.8,10.8-9.3
		c2.2,3.6,4.4,7.7,6.2,12.3c-3.3,1.6-6.7,3.6-10.1,6.1c-0.7,0.5-1.4,1-2,1.5c-2.2,1.7-4.4,3.7-6.5,5.9c-2.1-2.2-4.3-4.1-6.5-5.9
		c-0.7-0.5-1.4-1.1-2-1.5c-3.4-2.5-6.8-4.5-10.1-6.1c1.8-4.6,4-8.8,6.2-12.3c3.5,2.5,7.2,5.6,10.8,9.3C136.4,35.3,137,36,137.6,36.6
		z M174.1,48.5c0,0.9-0.1,1.7-0.1,2.6c0.9-0.1,1.7-0.1,2.6-0.1c5-0.1,9.7,0.3,13.8,1c-1,4.2-2.4,8.9-4.5,13.6
		c-3.4-1.2-7.1-2.2-11.1-2.8c-0.8-0.1-1.7-0.3-2.5-0.4c-2.9-0.4-5.9-0.5-9.1-0.5c0.1-3.2-0.1-6.2-0.5-9.1c-0.1-0.9-0.2-1.7-0.4-2.5
		c-0.7-4-1.6-7.7-2.8-11.1c4.7-2.1,9.3-3.5,13.6-4.5C173.8,38.8,174.2,43.5,174.1,48.5z M177.5,79.7c-1.7,2.1-3.5,4.1-5.5,6.1
		c-1.5-1.4-3.2-2.7-5-4c-0.7-0.5-1.3-1-2-1.5c-1.2-0.9-2.5-1.7-3.9-2.5c0.4-1.4,0.7-2.9,0.9-4.3c0.2-0.8,0.3-1.7,0.4-2.5
		c0.3-2.2,0.6-4.4,0.7-6.6c3,0,5.8,0.1,8.6,0.4c0.9,0.1,1.7,0.2,2.5,0.4c3.8,0.6,7.4,1.5,10.7,2.7c-1.6,3.3-3.5,6.5-5.9,9.7
		C178.5,78.3,178,79,177.5,79.7z M179,97.4c2.3,3.2,4.3,6.5,5.9,9.7c-3.3,1.1-6.9,2.1-10.7,2.7c-0.8,0.1-1.7,0.3-2.5,0.4
		c-2.7,0.3-5.6,0.5-8.6,0.4c-0.1-2.1-0.3-4.3-0.7-6.6c-0.1-0.8-0.3-1.7-0.4-2.5c-0.3-1.4-0.6-2.8-0.9-4.3c1.3-0.8,2.6-1.6,3.9-2.5
		c0.7-0.5,1.4-1,2-1.5c1.8-1.3,3.4-2.7,5-4c2,2,3.9,4,5.5,6.1C178,96,178.5,96.7,179,97.4z M142.7,113.5c-0.5,0.7-1,1.4-1.5,2
		c-1.2,1.6-2.4,3.1-3.6,4.5c-1.2-1.4-2.5-2.9-3.6-4.5c-0.5-0.7-1-1.3-1.5-2c-0.7-1-1.4-2.1-2.1-3.2c0.9-0.3,1.8-0.5,2.8-0.9
		c0.9-0.3,1.8-0.6,2.7-1c0.6-0.2,1.1-0.4,1.7-0.6c0.6,0.2,1.1,0.4,1.7,0.6c0.9,0.3,1.8,0.7,2.7,1c0.9,0.3,1.9,0.6,2.8,0.9
		C144.1,111.4,143.4,112.5,142.7,113.5z M144.2,107.5c-0.9-0.3-1.8-0.6-2.7-0.9c-1.1-0.4-2.2-0.8-3.4-1.3l-0.5-0.2l-0.5,0.2
		c-1.1,0.5-2.3,0.9-3.4,1.3c-0.9,0.3-1.8,0.6-2.7,0.9c-0.7,0.2-1.3,0.4-2,0.6c-0.3-0.6-0.7-1.2-1-1.9c-0.4-0.8-0.9-1.7-1.3-2.6
		c-0.5-1-1-2.1-1.4-3.2l-0.2-0.5l-0.5-0.2c-1.1-0.5-2.1-0.9-3.2-1.4c-0.9-0.4-1.7-0.8-2.6-1.3c-0.6-0.3-1.3-0.7-1.9-1
		c0.2-0.6,0.4-1.3,0.6-1.9c0.3-0.9,0.6-1.8,0.9-2.7c0.4-1.1,0.8-2.2,1.3-3.4l0.2-0.5l-0.2-0.5c-0.5-1.1-0.9-2.3-1.3-3.4
		c-0.3-0.9-0.6-1.8-0.9-2.7c-0.2-0.7-0.4-1.3-0.6-1.9c0.6-0.3,1.2-0.7,1.9-1c0.8-0.4,1.7-0.9,2.6-1.3c1-0.5,2.1-1,3.2-1.4l0.5-0.2
		l0.2-0.5c0.5-1.1,0.9-2.1,1.4-3.2c0.4-0.9,0.8-1.7,1.3-2.6c0.3-0.6,0.7-1.3,1-1.9c0.6,0.2,1.3,0.4,2,0.6c0.9,0.3,1.8,0.6,2.7,0.9
		c1.1,0.4,2.2,0.8,3.4,1.3l0.5,0.2l0.5-0.2c1.1-0.5,2.3-0.9,3.4-1.3c0.9-0.3,1.8-0.6,2.7-0.9c0.7-0.2,1.3-0.4,2-0.6
		c0.3,0.6,0.7,1.2,1,1.9c0.4,0.8,0.9,1.7,1.3,2.6c0.5,1,1,2.1,1.4,3.2l0.2,0.5l0.5,0.2c1.1,0.5,2.1,0.9,3.2,1.4
		c0.9,0.4,1.7,0.8,2.6,1.3c0.6,0.3,1.3,0.7,1.9,1c-0.2,0.6-0.4,1.3-0.6,1.9c-0.3,0.9-0.6,1.8-0.9,2.7c-0.4,1.1-0.8,2.2-1.3,3.4
		l-0.2,0.5l0.2,0.5c0.5,1.1,0.9,2.3,1.3,3.4c0.3,0.9,0.6,1.8,0.9,2.7c0.2,0.7,0.4,1.3,0.6,1.9c-0.6,0.3-1.2,0.7-1.9,1
		c-0.8,0.4-1.7,0.9-2.6,1.3c-1,0.5-2.1,1-3.2,1.4l-0.5,0.2l-0.2,0.5c-0.5,1.1-0.9,2.1-1.4,3.2c-0.4,0.9-0.8,1.7-1.3,2.6
		c-0.3,0.6-0.7,1.3-1,1.9C145.5,107.9,144.8,107.7,144.2,107.5z M97.7,95.3c1.7-2.1,3.5-4.1,5.5-6.1c1.5,1.4,3.2,2.7,5,4
		c0.7,0.5,1.3,1,2,1.5c1.2,0.9,2.5,1.7,3.9,2.5c-0.4,1.4-0.7,2.9-1,4.3c-0.2,0.8-0.3,1.7-0.4,2.5c-0.3,2.2-0.6,4.4-0.7,6.6
		c-3,0-5.8-0.1-8.6-0.4c-0.9-0.1-1.7-0.2-2.5-0.4c-3.8-0.6-7.4-1.5-10.7-2.7c1.6-3.3,3.5-6.5,5.9-9.7C96.7,96.7,97.2,96,97.7,95.3z
		 M96.2,77.6c-2.3-3.2-4.3-6.5-5.9-9.7c3.3-1.1,6.9-2.1,10.7-2.7c0.8-0.1,1.7-0.3,2.5-0.4c2.7-0.3,5.6-0.5,8.6-0.4
		c0.1,2.1,0.3,4.3,0.7,6.6c0.1,0.8,0.3,1.7,0.4,2.5c0.3,1.4,0.6,2.8,0.9,4.3c-1.3,0.8-2.6,1.6-3.9,2.5c-0.7,0.5-1.4,1-2,1.5
		c-1.8,1.3-3.4,2.7-5,4c-2-2-3.9-4-5.5-6.1C97.2,79,96.7,78.3,96.2,77.6z M125.2,69c-0.4,0.9-0.9,1.7-1.3,2.6
		c-0.2,0.5-0.5,1-0.7,1.5c-0.5,0.2-1,0.4-1.5,0.7c-0.9,0.4-1.8,0.8-2.6,1.3c-0.9,0.5-1.8,0.9-2.7,1.4c-0.3-1.2-0.5-2.4-0.8-3.6
		c-0.2-0.8-0.3-1.7-0.4-2.5c-0.3-2-0.5-4-0.6-5.9c1.9,0.1,3.9,0.3,5.9,0.6c0.8,0.1,1.7,0.3,2.5,0.4c1.2,0.2,2.4,0.5,3.6,0.8
		C126.1,67.2,125.6,68.1,125.2,69z M115.7,83.1c0.3,0.9,0.6,1.8,1,2.7c0.2,0.6,0.4,1.1,0.6,1.7c-0.2,0.6-0.4,1.1-0.6,1.7
		c-0.3,0.9-0.7,1.8-1,2.7c-0.3,0.9-0.6,1.9-0.9,2.8c-1.1-0.7-2.2-1.4-3.2-2.1c-0.7-0.5-1.4-1-2-1.5c-1.6-1.2-3.1-2.4-4.5-3.6
		c1.4-1.2,2.9-2.5,4.5-3.6c0.7-0.5,1.3-1,2-1.5c1-0.7,2.1-1.4,3.2-2.1C115.1,81.2,115.4,82.1,115.7,83.1z M115.2,104.6
		c0.1-0.8,0.3-1.7,0.4-2.5c0.2-1.2,0.5-2.4,0.8-3.6c0.9,0.5,1.8,1,2.7,1.4c0.9,0.4,1.7,0.9,2.6,1.3c0.5,0.2,1,0.5,1.5,0.7
		c0.2,0.5,0.4,1,0.7,1.5c0.4,0.9,0.8,1.8,1.3,2.6c0.5,0.9,0.9,1.8,1.4,2.7c-1.2,0.3-2.4,0.5-3.6,0.8c-0.8,0.2-1.7,0.3-2.5,0.4
		c-2,0.3-4,0.5-5.9,0.6C114.7,108.6,114.9,106.6,115.2,104.6z M132.5,61.5c0.5-0.7,1-1.4,1.5-2c1.2-1.6,2.4-3.1,3.6-4.5
		c1.2,1.4,2.5,2.9,3.6,4.5c0.5,0.7,1,1.3,1.5,2c0.7,1,1.4,2.1,2.1,3.2c-0.9,0.3-1.8,0.5-2.8,0.9c-0.9,0.3-1.8,0.6-2.7,1
		c-0.6,0.2-1.1,0.4-1.7,0.6c-0.6-0.2-1.1-0.4-1.7-0.6c-0.9-0.3-1.8-0.7-2.7-1c-0.9-0.3-1.9-0.6-2.8-0.9
		C131.1,63.6,131.8,62.5,132.5,61.5z M160,70.4c-0.1,0.8-0.3,1.7-0.4,2.5c-0.2,1.2-0.5,2.4-0.8,3.6c-0.9-0.5-1.8-1-2.7-1.4
		c-0.9-0.4-1.7-0.9-2.6-1.3c-0.5-0.2-1-0.5-1.5-0.7c-0.2-0.5-0.4-1-0.7-1.5c-0.4-0.9-0.8-1.8-1.3-2.6c-0.5-0.9-0.9-1.8-1.4-2.7
		c1.2-0.3,2.4-0.5,3.6-0.8c0.8-0.2,1.7-0.3,2.5-0.4c2-0.3,4-0.5,5.9-0.6C160.5,66.4,160.3,68.4,160,70.4z M159.5,91.9
		c-0.3-0.9-0.6-1.8-1-2.7c-0.2-0.6-0.4-1.1-0.6-1.7c0.2-0.6,0.4-1.1,0.6-1.7c0.3-0.9,0.7-1.8,1-2.7c0.3-0.9,0.6-1.9,0.9-2.8
		c1.1,0.7,2.2,1.4,3.2,2.1c0.7,0.5,1.4,1,2,1.5c1.6,1.2,3.1,2.4,4.5,3.6c-1.4,1.2-2.9,2.5-4.5,3.6c-0.7,0.5-1.3,1-2,1.5
		c-1,0.7-2.1,1.4-3.2,2.1C160.1,93.8,159.8,92.9,159.5,91.9z M150,106c0.4-0.9,0.9-1.7,1.3-2.6c0.2-0.5,0.5-1,0.7-1.5
		c0.5-0.2,1-0.4,1.5-0.7c0.9-0.4,1.8-0.8,2.6-1.3c0.9-0.5,1.8-0.9,2.7-1.4c0.3,1.2,0.5,2.4,0.8,3.6c0.2,0.8,0.3,1.7,0.4,2.5
		c0.3,2,0.5,4,0.6,5.9c-1.9-0.1-3.9-0.3-5.9-0.6c-0.8-0.1-1.7-0.3-2.5-0.4c-1.2-0.2-2.4-0.5-3.6-0.8
		C149.1,107.8,149.6,106.9,150,106z M159.9,50.9c0.1,0.8,0.3,1.7,0.4,2.5c0.3,2.7,0.5,5.6,0.4,8.6c-2.1,0.1-4.3,0.3-6.6,0.7
		c-0.8,0.1-1.7,0.3-2.5,0.4c-1.4,0.3-2.8,0.6-4.3,0.9c-0.8-1.3-1.6-2.6-2.5-3.9c-0.5-0.7-1-1.4-1.5-2c-1.3-1.8-2.7-3.4-4-5
		c2-2,4-3.9,6.1-5.5c0.7-0.5,1.4-1.1,2-1.6c3.2-2.3,6.5-4.3,9.7-5.9C158.3,43.5,159.3,47.1,159.9,50.9z M127.7,46.1
		c0.7,0.5,1.4,1,2,1.6c2.1,1.7,4.1,3.5,6.1,5.5c-1.4,1.5-2.7,3.2-4.1,5c-0.5,0.7-1,1.3-1.5,2c-0.9,1.2-1.7,2.5-2.5,3.9
		c-1.4-0.4-2.9-0.7-4.3-0.9c-0.8-0.2-1.7-0.3-2.5-0.4c-2.2-0.3-4.4-0.6-6.6-0.7c0-3,0.1-5.8,0.4-8.6c0.1-0.9,0.2-1.7,0.4-2.5
		c0.6-3.8,1.5-7.4,2.7-10.7C121.3,41.8,124.5,43.7,127.7,46.1z M115.3,124.1c-0.1-0.8-0.3-1.7-0.4-2.5c-0.3-2.7-0.5-5.6-0.4-8.6
		c2.1-0.1,4.3-0.3,6.6-0.7c0.8-0.1,1.7-0.3,2.5-0.4c1.4-0.3,2.8-0.6,4.3-0.9c0.8,1.3,1.6,2.6,2.5,3.9c0.5,0.7,1,1.4,1.5,2
		c1.3,1.8,2.7,3.4,4,5c-2,2-4,3.9-6.1,5.5c-0.7,0.5-1.4,1.1-2,1.6c-3.2,2.3-6.5,4.3-9.7,5.9C116.9,131.5,115.9,127.9,115.3,124.1z
		 M147.5,128.9c-0.7-0.5-1.4-1-2-1.6c-2.1-1.7-4.1-3.5-6.1-5.5c1.4-1.5,2.7-3.2,4-5c0.5-0.7,1-1.3,1.5-2c0.9-1.2,1.7-2.5,2.5-3.9
		c1.4,0.4,2.9,0.7,4.3,0.9c0.8,0.2,1.7,0.3,2.5,0.4c2.2,0.3,4.4,0.6,6.6,0.7c0,3-0.1,5.8-0.4,8.6c-0.1,0.9-0.2,1.7-0.4,2.5
		c-0.6,3.8-1.5,7.4-2.7,10.7C153.9,133.2,150.7,131.3,147.5,128.9z M192.3,32.8c0.1,2.4,0.2,8.7-1.3,16.6c-2.1-0.4-4.4-0.7-6.8-0.9
		c-2.3-0.2-4.8-0.3-7.5-0.2c0.1-2.6,0-5.2-0.2-7.5c-0.2-2.4-0.5-4.6-0.9-6.8C183.6,32.6,189.9,32.7,192.3,32.8z M167.6,16.2
		c1,2.2,3.5,7.9,5.1,15.9c-2.1,0.5-4.3,1-6.6,1.8c-2.3,0.7-4.8,1.7-7.4,2.8c-1-2.6-2.1-5-3.2-7.2c-1-2-2.1-3.8-3.2-5.5
		C159.2,19.4,165.3,17,167.6,16.2z M137.6,10.2c1.8,1.6,6.5,6.2,11.1,13.1c-1.7,1.2-3.3,2.4-5,3.8c-2,1.6-4,3.5-6.1,5.7
		c-2-2.1-4.1-4-6.1-5.7c-1.7-1.4-3.4-2.7-5-3.8C131.1,16.3,135.8,11.8,137.6,10.2z M107.6,16.2c2.3,0.8,8.3,3.2,15.3,7.8
		c-1.1,1.7-2.1,3.5-3.2,5.5c-1.1,2.2-2.2,4.6-3.2,7.2c-2.6-1.1-5-2.1-7.4-2.8c-2.3-0.7-4.5-1.3-6.6-1.8
		C104.2,24.2,106.6,18.4,107.6,16.2z M82.9,32.8c2.4-0.1,8.7-0.2,16.6,1.3c-0.4,2.1-0.7,4.4-0.9,6.8c-0.1,1.8-0.2,3.8-0.2,5.8
		c0,0.6,0,1.1,0,1.7c-2.6-0.1-5.2,0-7.5,0.2c-2.4,0.2-4.6,0.5-6.8,0.9C82.7,41.5,82.8,35.2,82.9,32.8z M66.3,57.5
		c2.2-1,7.9-3.5,15.9-5.1c0.5,2.1,1,4.3,1.8,6.6c0.7,2.3,1.7,4.8,2.8,7.4c-2.6,1-5,2.1-7.2,3.2c-2,1-3.8,2.1-5.5,3.2
		C69.5,65.9,67.1,59.8,66.3,57.5z M60.3,87.5c1.6-1.8,6.2-6.5,13.1-11.1c1.2,1.7,2.4,3.3,3.8,5c1.6,2,3.5,4,5.7,6.1
		c-2.1,2-4,4.1-5.7,6.1c-1.4,1.7-2.7,3.4-3.8,5C66.4,94,61.9,89.3,60.3,87.5z M66.3,117.5c0.8-2.3,3.2-8.3,7.8-15.3
		c1.7,1.1,3.5,2.1,5.5,3.2c2.2,1.1,4.6,2.2,7.2,3.2c-1.1,2.6-2.1,5-2.8,7.4c-0.7,2.3-1.3,4.5-1.8,6.6
		C74.3,120.9,68.5,118.5,66.3,117.5z M82.9,142.2c-0.1-2.4-0.2-8.7,1.3-16.6c2.1,0.4,4.4,0.7,6.8,0.9c2.3,0.2,4.8,0.3,7.5,0.2
		c0,0.6,0,1.1,0,1.7c0,2,0.1,4,0.2,5.8c0.2,2.4,0.5,4.6,0.9,6.8C91.6,142.4,85.3,142.3,82.9,142.2z M107.6,158.8
		c-1-2.2-3.5-7.9-5.1-15.9c2.1-0.5,4.3-1,6.6-1.8c2.3-0.7,4.8-1.7,7.4-2.8c1,2.6,2.1,5,3.2,7.2c1,2,2.1,3.8,3.2,5.5
		C116,155.6,109.9,158,107.6,158.8z M137.6,164.8c-1.8-1.6-6.5-6.2-11.1-13.1c1.7-1.2,3.3-2.4,5-3.8c2-1.6,4-3.5,6.1-5.7
		c2,2.1,4.1,4,6.1,5.7c1.7,1.4,3.4,2.7,5,3.8C144.1,158.7,139.4,163.2,137.6,164.8z M167.6,158.8c-2.3-0.8-8.3-3.2-15.3-7.8
		c1.1-1.7,2.1-3.5,3.2-5.5c1.1-2.2,2.2-4.6,3.2-7.2c2.6,1.1,5,2.1,7.4,2.8c2.3,0.7,4.5,1.3,6.6,1.8
		C171,150.8,168.6,156.6,167.6,158.8z M192.3,142.2c-2.4,0.1-8.7,0.2-16.6-1.3c0.4-2.1,0.7-4.4,0.9-6.8c0.2-2.3,0.3-4.8,0.2-7.5
		c2.6,0.1,5.2,0,7.5-0.2c2.4-0.2,4.6-0.5,6.8-0.9C192.5,133.5,192.4,139.8,192.3,142.2z M208.9,117.5c-2.2,1-7.9,3.5-15.9,5.1
		c-0.5-2.1-1-4.3-1.8-6.6c-0.7-2.3-1.7-4.8-2.8-7.4c2.6-1,5-2.1,7.2-3.2c2-1,3.8-2.1,5.5-3.2C205.7,109.1,208.1,115.2,208.9,117.5z
		 M201.8,98.6c-1.2-1.7-2.4-3.3-3.8-5c-1.6-2-3.5-4-5.7-6.1c2.1-2,4-4.1,5.7-6.1c1.4-1.7,2.7-3.4,3.8-5c6.9,4.7,11.4,9.3,13.1,11.1
		C213.3,89.3,208.8,94,201.8,98.6z"/>
	<g>
		<path d="M30.2,130.5h-10v-18.3h3.8v15.2h6.2V130.5z"/>
		<path d="M36,124.9v0.1c0,2.1,1,3.3,2.8,3.3c1.2,0,2.3-0.4,3.4-1.3l1.4,2.1c-1.6,1.3-3.2,1.9-5.1,1.9c-3.9,0-6.4-2.7-6.4-7
			c0-2.4,0.5-4,1.7-5.3c1.1-1.2,2.4-1.8,4.2-1.8c1.6,0,3,0.5,3.9,1.4c1.2,1.3,1.8,3.1,1.8,5.9v0.8H36z M40.1,122.2
			c0-1-0.1-1.5-0.4-2c-0.3-0.5-0.8-0.8-1.6-0.8c-1.3,0-2.1,1.1-2.1,2.9v0.1h4.1V122.2z"/>
		<path d="M55.6,131.2c-0.8-0.3-1.6-0.9-1.9-1.6c-0.3,0.3-0.6,0.5-0.8,0.7c-0.7,0.5-1.6,0.7-2.7,0.7c-3,0-4.6-1.5-4.6-4.2
			c0-3.2,2.2-4.6,6.5-4.6c0.3,0,0.5,0,0.8,0v-0.6c0-1.5-0.3-2-1.6-2c-1.1,0-2.4,0.6-3.9,1.5l-1.5-2.5c0.7-0.4,1.2-0.7,2.2-1.1
			c1.3-0.6,2.4-0.8,3.7-0.8c2.3,0,3.8,0.8,4.3,2.3c0.2,0.6,0.3,1,0.2,2.4l-0.1,4.5c0,1.5,0.1,2.1,1.3,3L55.6,131.2z M52.6,124.7
			c-2.4,0-3.3,0.4-3.3,2.1c0,1.1,0.7,1.8,1.6,1.8c0.7,0,1.3-0.3,1.8-0.9l0.1-2.9H52.6z"/>
		<path d="M71.2,125.6c0,3.3,0.3,4.4,0.5,4.9h-3.2c-0.1-0.2-0.2-0.4-0.2-0.8c-0.9,0.8-1.9,1.1-3.1,1.1c-3.4,0-5.6-2.7-5.6-6.8
			c0-4.2,2.3-7.1,5.8-7.1c1.1,0,1.8,0.3,2.4,0.8l-0.1-1.9c-0.1-1.2-0.1-2-0.2-2.7c-0.1-0.4-0.2-0.7-0.3-1l3.4-1.1
			c0.1,0.3,0.2,0.7,0.3,1.1c0.2,0.7,0.3,1.6,0.3,2.4V125.6z M67.8,120.6c-0.7-0.6-1.3-0.9-1.9-0.9c-1.6,0-2.3,1.3-2.3,4.3
			c0,2.9,0.6,3.8,2.4,3.8c0.7,0,1.4-0.4,1.7-0.9V120.6z"/>
		<path d="M78.8,124.9v0.1c0,2.1,1,3.3,2.8,3.3c1.2,0,2.3-0.4,3.4-1.3l1.4,2.1c-1.6,1.3-3.2,1.9-5.1,1.9c-3.9,0-6.4-2.7-6.4-7
			c0-2.4,0.5-4,1.7-5.3c1.1-1.2,2.4-1.8,4.2-1.8c1.6,0,3,0.5,3.9,1.4c1.2,1.3,1.8,3.1,1.8,5.9v0.8H78.8z M82.9,122.2
			c0-1-0.1-1.5-0.4-2c-0.3-0.5-0.8-0.8-1.6-0.8c-1.3,0-2.1,1.1-2.1,2.9v0.1h4.1V122.2z"/>
		<path d="M96.3,120.2c-0.3-0.2-0.6-0.3-1-0.3c-0.8,0-1.5,0.4-2.2,1.1v9.5h-3.5v-9c0-1.8-0.2-3.2-0.5-3.9l3.2-0.8
			c0.3,0.6,0.5,1.2,0.6,1.9c0.8-1,1.8-1.9,3.2-1.9c0.5,0,0.8,0.1,1.3,0.3L96.3,120.2z"/>
		<path d="M103,131c-1.7,0-3.5-0.5-5.4-1.6l1.3-2.6c1.1,0.7,2.9,1.5,4.5,1.5c1,0,1.8-0.7,1.8-1.5c0-0.9-0.7-1.4-2.1-1.7l-1.6-0.3
			c-0.9-0.2-2-0.8-2.5-1.4c-0.5-0.6-0.8-1.6-0.8-2.4c0-2.6,2.1-4.4,5.2-4.4c2.2,0,3.6,0.7,4.8,1.3l-1.2,2.4c-1.3-0.7-2.3-1-3.3-1
			c-1,0-1.7,0.5-1.7,1.3c0,0.7,0.4,1.1,1.7,1.4l1.6,0.4c1.7,0.4,2.2,0.9,2.7,1.5c0.5,0.6,0.7,1.4,0.7,2.3
			C108.8,129.1,106.5,131,103,131z"/>
		<path d="M119.5,130.5v-9c0-1.3-0.4-1.8-1.4-1.8c-0.9,0-2,0.5-2.8,1.2v9.6h-3.6V115c0-1.3-0.1-2.5-0.3-3.1l3.6-0.8
			c0.2,0.7,0.2,2,0.2,3.3v2.7l-0.1,1.1c0.9-0.9,2.4-1.4,3.8-1.4c1.7,0,3.1,0.7,3.5,1.9c0.3,0.8,0.3,1.2,0.3,2.5v9.4H119.5z"/>
		<path d="M127.6,130.5v-13.5h3.5v13.5H127.6z M129.2,115.2c-1.2,0-2.2-1-2.2-2.2s1-2.2,2.2-2.2c1.2,0,2.1,1,2.1,2.2
			S130.5,115.2,129.2,115.2z"/>
		<path d="M145,129.3c-0.9,1-2.1,1.5-3.6,1.5c-1.1,0-2-0.3-2.8-0.7l0.1,1.1v4.7h-3.4v-15.1c0-1.8,0-2.3-0.2-3.4l3.1-0.6
			c0.1,0.5,0.2,0.8,0.2,1.3c0.6-0.7,1.9-1.3,3.3-1.3c0.9,0,1.9,0.3,2.7,0.8c1.4,1,2.5,2.7,2.5,5.8
			C146.9,126.3,146.4,127.8,145,129.3z M142.7,120.8c-0.3-0.7-0.8-1.1-1.7-1.1c-0.9,0-1.7,0.4-2.3,1v6.5c0.5,0.4,1.2,0.8,1.9,0.8
			c1.7,0,2.4-1.2,2.4-4.3C143.1,122.5,143,121.5,142.7,120.8z"/>
		<path d="M156.4,112.3h3.7v18.3h-3.7L156.4,112.3z"/>
		<path d="M171.3,130.5v-8.8c0-1.5-0.3-2-1.2-2c-0.7,0-1.6,0.5-2.4,1.2v9.5h-3.5v-9.8c0-1.2-0.2-2.3-0.5-3.2l3.1-0.9
			c0.3,0.6,0.5,1.1,0.5,1.7c0.5-0.4,1-0.7,1.6-1c0.7-0.4,1.6-0.6,2.4-0.6c1.5,0,2.8,0.8,3.2,1.9c0.2,0.5,0.3,1.1,0.3,1.9v9.8H171.3z
			"/>
		<path d="M179.4,130.5v-13.5h3.5v13.5H179.4z M181,115.2c-1.2,0-2.2-1-2.2-2.2s1-2.2,2.2-2.2c1.2,0,2.1,1,2.1,2.2
			S182.2,115.2,181,115.2z"/>
		<path d="M190.9,130.9c-1.8,0-3.2-0.8-3.6-2c-0.2-0.6-0.2-0.8-0.2-2.1v-7.3h-1.3v-2.4h1.3c0-1.3,0-2.2,0.1-3.2l3.6-0.9
			c-0.1,1.2-0.2,2.7-0.2,4.1h2.7v2.4h-2.7v6.8c0,1.7,0.3,2.2,1.5,2.2c0.3,0,0.6-0.1,1.3-0.3l0.4,2.1
			C192.8,130.7,191.8,130.9,190.9,130.9z"/>
		<path d="M197,130.5v-13.5h3.5v13.5H197z M198.6,115.2c-1.2,0-2.2-1-2.2-2.2s1-2.2,2.2-2.2c1.2,0,2.1,1,2.1,2.2
			S199.8,115.2,198.6,115.2z"/>
		<path d="M213.6,131.2c-0.8-0.3-1.6-0.9-1.9-1.6c-0.3,0.3-0.6,0.5-0.8,0.7c-0.7,0.5-1.6,0.7-2.7,0.7c-3,0-4.6-1.5-4.6-4.2
			c0-3.2,2.2-4.6,6.5-4.6c0.3,0,0.5,0,0.8,0v-0.6c0-1.5-0.3-2-1.6-2c-1.1,0-2.4,0.6-3.9,1.5l-1.5-2.5c0.7-0.4,1.2-0.7,2.2-1.1
			c1.3-0.6,2.4-0.8,3.7-0.8c2.3,0,3.8,0.8,4.3,2.3c0.2,0.6,0.3,1,0.2,2.4l-0.1,4.5c0,1.5,0.1,2.1,1.3,3L213.6,131.2z M210.6,124.7
			c-2.4,0-3.3,0.4-3.3,2.1c0,1.1,0.7,1.8,1.6,1.8c0.7,0,1.3-0.3,1.8-0.9l0.1-2.9H210.6z"/>
		<path d="M222.4,130.9c-1.8,0-3.2-0.8-3.6-2c-0.2-0.6-0.2-0.8-0.2-2.1v-7.3h-1.3v-2.4h1.3c0-1.3,0-2.2,0.1-3.2l3.6-0.9
			c-0.1,1.2-0.2,2.7-0.2,4.1h2.7v2.4H222v6.8c0,1.7,0.3,2.2,1.5,2.2c0.3,0,0.6-0.1,1.3-0.3l0.4,2.1
			C224.2,130.7,223.3,130.9,222.4,130.9z"/>
		<path d="M228.4,130.5v-13.5h3.5v13.5H228.4z M230,115.2c-1.2,0-2.2-1-2.2-2.2s1-2.2,2.2-2.2c1.2,0,2.1,1,2.1,2.2
			S231.2,115.2,230,115.2z"/>
		<path d="M241.5,130.5h-2.9l-5-13.5h3.8l1.8,5.7l0.9,3.4l0.8-3.4l1.8-5.7h3.7L241.5,130.5z"/>
		<path d="M251.2,124.9v0.1c0,2.1,1,3.3,2.8,3.3c1.2,0,2.3-0.4,3.4-1.3l1.4,2.1c-1.6,1.3-3.2,1.9-5.1,1.9c-3.9,0-6.4-2.7-6.4-7
			c0-2.4,0.5-4,1.7-5.3c1.1-1.2,2.4-1.8,4.2-1.8c1.6,0,3,0.5,3.9,1.4c1.2,1.3,1.8,3.1,1.8,5.9v0.8H251.2z M255.3,122.2
			c0-1-0.1-1.5-0.4-2c-0.3-0.5-0.8-0.8-1.6-0.8c-1.3,0-2.1,1.1-2.1,2.9v0.1h4.1V122.2z"/>
	</g>
	<polygon points="17.3,95.6 17.3,79 33.4,79 33.4,71.9 17.3,71.9 17.3,57.3 36.6,57.3 37.7,50.3 8.5,50.3 8.5,103.1 38.5,103.1 
		38.5,95.6 	"/>
	<path d="M43.5,65.6c0,0,1.3,2.8,1.3,8.4c0,5.6,0,29.1,0,29.1h8.2V74.4c0,0,4.2-4.2,8.6-3.7c0,0,3.5,0.2,3.5,4.7v27.6h8V74.9
		c0,0,3.8-4.3,8.5-4.3c3.9-0.2,3.6,4.3,3.6,4.3v28.2h8.3V74.7c0,0,0.2-8-5.6-10.5C82,61.8,74.7,65.7,72,69.3c0,0-2.8-5.6-8.4-5.8
		c-5.2-0.2-9.1,2.9-11.1,5c0,0-0.2-3.5-1.4-5L43.5,65.6z"/>
	<polygon points="103.1,65.1 111.5,63.5 111.5,103.1 103.1,103.1 	"/>
	<path d="M120.3,65.5l7.7-2c0,0,1.6,2.7,1.5,6.1c0,0,4.6-8,12.8-5.6l-2.7,7.9c0,0-6.2-2.9-9.5,4.9v26.4h-8.4V75.7
		C121.7,75.7,121.9,69.2,120.3,65.5z"/>
	<g>
		<path d="M171.9,92.7c0-5,0.2-19.7,0.2-19.7s-0.1-6.2-6.1-8.4c-6.2-2.3-15.7-0.5-22.6,4.1l3.7,6c0,0,6.1-4.5,12.4-4.3
			c5.6-0.2,4.5,9,4.5,9s-12.2-1.2-18.3,4.6c0,0-3.7,3.1-3.4,9.9c0.3,6.8,6.6,11.4,14,10.4c6.4-0.6,9.3-4.7,9.3-4.7s1.4,3.9,5.3,5.1
			l4.3-5.3C175.3,99.3,171.9,97.7,171.9,92.7z M163.8,94.1c0,0-3,4.1-6.6,4.1s-6.1-2.3-5.8-6.6c0.3-4.4,3.4-7.2,12.4-6.6V94.1z"/>
	</g>
	<path d="M199,97.4c0,0-2.7,1.3-5.5,0.5c-2.8-0.8-2.8-3.9-2.8-5.5c0-1.4,0-18.7,0-22.1h7.1c0,0,2.1-5.6,2.2-5.8c0-0.1-9.1,0-9.1,0
		s0.3-8.5,0.7-11.6l-8.6,2c0,0-0.4,4.8-0.3,9.5h-4.3v5.8h4.2l0,22.9c0,0-0.3,5.7,2.6,8.3c2.7,2.4,8.1,4,15,0.9L199,97.4z"/>
	<g>
		<path d="M233.5,73.1c-1.8-5.5-7.1-9.7-15.2-9.5c-8.2,0-14.3,7.6-15.3,15.6c-1,8,0.4,22.4,14.8,24.6c10.8,1.3,16.6-5,16.6-5
			l-3.2-5.1c0,0-3.6,3.8-9.6,3.8c-6,0-9.5-3.4-9.6-11.6H235C235,86,235.3,78.6,233.5,73.1z M226.3,79.8h-14.4c0,0-0.4-9.9,7.2-9.9
			C226.7,69.9,226.3,79.8,226.3,79.8z"/>
	</g>
	<path d="M265.3,72.2l2.7-5.8c0,0-5-3.3-13.2-3.3s-13.6,5.5-13.7,12.1s4.4,10.2,11.7,11.2s9.2,4,8.2,7.4s-4.5,4.9-9.3,3.7
		c-4.8-1.2-9.3-3.7-9.3-3.7l-2.9,6c0,0,7.9,4.9,17,4.1c9.1-0.8,13.3-7.1,13.4-12.5c0-5.4-2.4-8.4-7.4-10.5c-5.1-2.1-12.8-1.5-12.5-7
		C250.3,68.7,257.7,68,265.3,72.2z"/>
	<circle cx="107.5" cy="53.1" r="5.5"/>
</g>
</svg>
